# xmcd
#
# Track frame offsets: 
#        150
#        14400
#        30054
#        51514
#        71355
#        87149
#        104652
#        130769
#        154850
#        188654
#
# Disc length: 2884 seconds
#
# Revision: 0
# Processed by: cddbd v1.5.2PL0 Copyright (c) Steve Scherf et al.
# Submitted via: ExactAudioCopy v1.0b4
#
DISCID=780b420a
DTITLE=Bo Diddley - Rock #n# Roll All-Star Jam 1985
DYEAR=1985
DGENRE=Blues
TTITLE0=I'm A Man
TTITLE1=Bo Diddley
TTITLE2=I'm A Man
TTITLE3=Bo Put The rock in Rock'n'Roll
TTITLE4=My Ding A Ling
TTITLE5=Destination
TTITLE6=Who Do You Love
TTITLE7=Gunslinger
TTITLE8=Hey Bo Diddley
TTITLE9=Rock'n'Roll Musik
EXTD=
EXTT0=
EXTT1=
EXTT2=
EXTT3=
EXTT4=
EXTT5=
EXTT6=
EXTT7=
EXTT8=
EXTT9=
PLAYORDER=
